<svg xmlns="http://www.w3.org/2000/svg" viewBox="900 100 1100 1300" width="1100" height="1300">
  <g transform="matrix(-1 0 0 1 2900 0)">
  <!-- Right hand (mirrored from left). The single <path id="hand-outline-right"> below renders the entire hand
       using even-odd fill. Finger locations are indexed in <g id="finger-index">. -->

  <!-- ============ FINGER INDEX ============
       Each finger corresponds to a contiguous range of commands in the hand-outline path.
       Tip = highest point of that finger. Bbox = bounding box of that finger's path segment.
       pinky  : tip=(1162,247)  bbox=(1109,145)-(1378,757)  cmd_range=[0,78)
       ring   : tip=(1176,266)  bbox=(930,266)-(1318,1364)  cmd_range=[78,300)
       middle : tip=(1400,162)  bbox=(1336,162)-(1457,696)  cmd_range=[300,336)
       index  : tip=(1616,239)  bbox=(1472,239)-(1957,1366)  cmd_range=[336,486)
       thumb  : tip=(1629,224)  bbox=(1378,145)-(1674,897)  cmd_range=[486,574)
  ============================================ -->

  <path id="hand-outline-right" fill="black" fill-rule="evenodd" stroke="none" d="M1378.000 145.142 C 1361.500 149.677,1347.359 161.404,1338.320 178.047 C 1336.478 181.440,1334.266 186.530,1333.405 189.358 C 1332.544 192.186,1331.367 195.625,1330.790 197.000 C 1326.795 206.514,1325.229 243.512,1327.319 279.000 C 1328.080 291.925,1328.785 312.581,1328.886 324.901 C 1328.987 337.222,1329.244 347.585,1329.457 347.931 C 1329.942 348.715,1330.786 367.189,1331.575 394.275 C 1331.907 405.701,1332.536 417.626,1332.971 420.775 C 1333.407 423.924,1333.825 432.125,1333.900 439.000 C 1334.070 454.564,1335.029 486.149,1335.493 491.500 C 1335.684 493.700,1336.133 507.875,1336.491 523.000 C 1336.849 538.125,1337.371 551.850,1337.651 553.500 C 1337.932 555.150,1338.566 572.250,1339.061 591.500 C 1339.556 610.750,1340.374 634.825,1340.880 645.000 C 1341.385 655.175,1341.587 665.750,1341.329 668.500 C 1340.719 674.998,1338.432 680.000,1336.072 680.000 C 1334.099 680.000,1329.000 674.039,1329.000 671.733 C 1329.000 670.963,1328.679 670.013,1328.287 669.621 C 1327.099 668.432,1324.002 659.638,1324.001 657.450 C 1324.000 656.323,1323.597 654.973,1323.105 654.450 C 1322.613 653.928,1321.689 651.250,1321.051 648.500 C 1319.397 641.367,1317.313 633.145,1315.982 628.500 C 1315.351 626.300,1314.591 623.150,1314.292 621.500 C 1313.993 619.850,1313.429 618.050,1313.038 617.500 C 1312.358 616.542,1310.429 610.227,1307.540 599.500 C 1301.988 578.889,1295.603 555.786,1293.996 550.500 C 1293.495 548.850,1292.195 544.125,1291.108 540.000 C 1290.020 535.875,1287.925 528.225,1286.450 523.000 C 1284.976 517.775,1283.431 511.925,1283.018 510.000 C 1282.604 508.075,1281.537 504.475,1280.647 502.000 C 1279.757 499.525,1279.023 496.893,1279.015 496.151 C 1279.007 495.409,1278.368 493.384,1277.597 491.651 C 1276.825 489.918,1275.240 484.675,1274.075 480.000 C 1271.808 470.900,1269.717 463.313,1267.426 455.866 C 1266.642 453.317,1266.000 450.369,1266.000 449.316 C 1266.000 448.262,1265.611 446.972,1265.136 446.450 C 1264.661 445.927,1263.751 443.250,1263.115 440.500 C 1262.478 437.750,1260.808 431.675,1259.403 427.000 C 1257.998 422.325,1256.445 416.925,1255.951 415.000 C 1255.091 411.647,1254.026 407.690,1250.434 394.500 C 1249.535 391.200,1248.410 387.600,1247.934 386.500 C 1247.458 385.400,1246.116 380.675,1244.953 376.000 C 1243.789 371.325,1242.219 365.250,1241.463 362.500 C 1238.073 350.167,1236.224 343.105,1235.048 338.000 C 1234.351 334.975,1233.181 330.475,1232.448 328.000 C 1231.716 325.525,1230.144 320.125,1228.957 316.000 C 1227.769 311.875,1226.438 307.600,1226.000 306.500 C 1225.561 305.400,1224.632 302.925,1223.935 301.000 C 1216.884 281.528,1203.748 263.045,1190.699 254.239 C 1181.996 248.366,1174.926 246.497,1161.500 246.523 C 1150.025 246.545,1149.216 246.687,1143.000 249.762 C 1133.722 254.351,1128.477 258.582,1122.976 265.914 C 1112.264 280.191,1108.628 292.440,1108.552 314.500 C 1108.523 322.750,1108.817 332.200,1109.203 335.500 C 1111.010 350.911,1112.167 358.781,1113.099 362.000 C 1114.070 365.353,1114.819 369.313,1116.977 382.500 C 1117.517 385.800,1118.361 390.300,1118.853 392.500 C 1121.306 403.481,1126.322 425.401,1128.005 432.500 C 1130.035 441.060,1130.655 444.192,1131.569 450.500 C 1131.888 452.700,1132.746 456.300,1133.477 458.500 C 1134.207 460.700,1135.130 464.750,1135.528 467.500 C 1135.927 470.250,1136.594 472.950,1137.012 473.500 C 1137.429 474.050,1138.309 477.875,1138.967 482.000 C 1139.625 486.125,1140.540 490.850,1141.000 492.500 C 1141.797 495.359,1144.174 506.320,1146.095 516.000 C 1146.586 518.475,1147.902 524.550,1149.020 529.500 C 1150.137 534.450,1151.526 540.750,1152.106 543.500 C 1152.686 546.250,1153.799 551.081,1154.580 554.235 C 1155.361 557.389,1156.000 561.356,1156.000 563.051 C 1156.000 564.745,1156.457 566.985,1157.015 568.028 C 1157.573 569.071,1158.652 572.979,1159.412 576.712 C 1160.172 580.446,1162.144 589.350,1163.793 596.500 C 1165.442 603.650,1167.975 614.900,1169.420 621.500 C 1176.690 654.689,1180.150 669.946,1182.575 679.500 C 1183.412 682.800,1184.477 687.525,1184.942 690.000 C 1185.406 692.475,1186.528 697.650,1187.435 701.500 C 1194.941 733.354,1196.799 750.407,1193.518 757.322 C 1192.222 760.053,1191.154 761.000,1189.372 761.000 C 1184.530 761.000,1178.781 756.422,1175.479 749.937 C 1174.201 747.428,1172.446 744.785,1171.578 744.065 C 1170.710 743.344,1169.967 742.023,1169.927 741.128 C 1169.887 740.232,1169.014 738.150,1167.987 736.500 C 1165.537 732.564,1158.454 719.933,1154.808 713.000 C 1151.736 707.157,1150.907 705.701,1147.246 699.721 C 1142.903 692.626,1141.000 688.940,1141.000 687.625 C 1141.000 686.902,1140.100 685.495,1139.000 684.500 C 1137.900 683.505,1137.000 682.141,1137.000 681.471 C 1137.000 680.800,1135.763 678.135,1134.250 675.547 C 1127.299 663.656,1125.978 661.261,1124.433 657.750 C 1123.525 655.688,1122.382 654.000,1121.891 654.000 C 1121.401 654.000,1121.000 653.190,1121.000 652.200 C 1121.000 651.210,1120.583 649.973,1120.074 649.450 C 1119.564 648.928,1117.493 645.350,1115.471 641.500 C 1113.449 637.650,1111.219 633.825,1110.515 633.000 C 1109.812 632.175,1108.905 630.375,1108.500 629.000 C 1108.095 627.625,1107.254 625.825,1106.632 625.000 C 1105.198 623.100,1104.147 621.210,1098.169 609.786 C 1095.496 604.679,1092.264 598.700,1090.985 596.500 C 1084.992 586.189,1083.943 584.335,1082.783 582.000 C 1082.100 580.625,1081.307 579.275,1081.020 579.000 C 1080.734 578.725,1079.696 576.925,1078.713 575.000 C 1076.522 570.709,1070.120 558.612,1063.477 546.210 C 1060.740 541.100,1056.843 533.802,1054.818 529.991 C 1052.794 526.180,1050.629 522.486,1050.009 521.781 C 1048.379 519.929,1044.988 514.263,1042.036 508.458 C 1040.626 505.685,1038.466 502.137,1037.236 500.573 C 1036.006 499.010,1035.000 497.341,1035.000 496.865 C 1035.000 496.389,1034.314 495.212,1033.475 494.250 C 1032.636 493.288,1029.623 489.575,1026.781 486.000 C 1022.442 480.543,1015.625 473.535,1011.499 470.288 C 1005.113 465.262,1002.539 463.787,991.500 458.830 C 984.118 455.515,965.583 456.573,957.064 460.795 C 943.780 467.379,932.385 482.383,929.921 496.532 C 928.515 504.607,929.214 532.663,930.900 535.814 C 931.505 536.944,932.000 539.068,932.000 540.533 C 932.000 541.999,932.625 544.616,933.388 546.349 C 934.151 548.082,936.696 554.225,939.042 560.000 C 941.389 565.775,944.988 574.100,947.041 578.500 C 949.094 582.900,951.777 588.975,953.004 592.000 C 954.232 595.025,956.371 599.975,957.759 603.000 C 960.702 609.416,965.206 619.290,968.604 626.780 C 969.922 629.683,971.000 632.391,971.000 632.798 C 971.000 633.204,972.125 635.191,973.500 637.215 C 974.875 639.238,976.000 641.763,976.000 642.825 C 976.000 643.886,976.675 645.315,977.500 646.000 C 978.325 646.685,979.000 648.063,979.000 649.063 C 979.000 650.064,979.450 651.160,980.000 651.500 C 980.550 651.840,981.000 652.758,981.000 653.540 C 981.000 654.783,982.832 658.985,991.008 676.500 C 992.035 678.700,995.224 685.675,998.094 692.000 C 1000.965 698.325,1004.143 704.694,1005.157 706.154 C 1006.170 707.614,1007.000 709.345,1007.000 710.000 C 1007.000 710.655,1007.657 712.386,1008.461 713.846 C 1009.264 715.306,1012.137 721.675,1014.845 728.000 C 1019.792 739.557,1022.121 744.725,1029.039 759.500 C 1034.119 770.349,1039.258 781.353,1042.396 788.096 C 1043.828 791.175,1045.000 794.212,1045.000 794.846 C 1045.000 795.481,1045.450 796.000,1046.000 796.000 C 1046.550 796.000,1047.000 796.679,1047.000 797.508 C 1047.000 798.337,1049.411 804.075,1052.358 810.258 C 1055.305 816.441,1058.058 822.625,1058.476 824.000 C 1058.894 825.375,1059.806 827.175,1060.501 828.000 C 1061.874 829.628,1065.172 836.693,1070.537 849.500 C 1074.445 858.827,1075.961 862.762,1076.511 865.000 C 1076.849 866.375,1077.551 868.400,1078.071 869.500 C 1079.321 872.146,1083.935 887.441,1085.009 892.500 C 1085.476 894.700,1086.820 899.650,1087.997 903.500 C 1089.173 907.350,1090.571 912.921,1091.102 915.880 C 1091.634 918.838,1092.443 921.988,1092.900 922.880 C 1093.358 923.771,1094.038 926.902,1094.412 929.837 C 1094.786 932.773,1095.489 935.923,1095.974 936.837 C 1096.459 937.752,1097.799 943.900,1098.951 950.500 C 1100.104 957.100,1101.500 964.300,1102.055 966.500 C 1103.281 971.366,1107.880 997.213,1108.994 1005.500 C 1110.121 1013.878,1113.282 1032.055,1117.429 1054.000 C 1120.211 1068.721,1121.209 1073.614,1123.139 1082.000 C 1124.216 1086.675,1125.495 1092.300,1125.983 1094.500 C 1128.963 1107.935,1143.985 1156.666,1146.021 1159.500 C 1146.416 1160.050,1147.307 1162.300,1148.000 1164.500 C 1148.693 1166.700,1149.578 1168.950,1149.967 1169.500 C 1150.355 1170.050,1151.724 1173.200,1153.009 1176.500 C 1158.205 1189.842,1177.298 1229.704,1182.448 1237.959 C 1184.478 1241.215,1190.952 1253.568,1195.047 1262.000 C 1195.982 1263.925,1197.903 1268.875,1199.315 1273.000 C 1206.448 1293.828,1209.102 1312.370,1209.390 1343.365 C 1209.561 1361.809,1209.617 1362.271,1211.893 1364.115 C 1215.088 1366.702,1221.011 1366.566,1224.493 1363.827 L 1227.257 1361.653 1226.717 1338.577 C 1226.030 1309.215,1222.403 1286.941,1214.817 1265.500 C 1212.858 1259.965,1204.082 1240.472,1201.984 1237.000 C 1194.461 1224.545,1171.000 1177.962,1171.000 1175.479 C 1171.000 1175.107,1170.325 1173.272,1169.500 1171.401 C 1166.224 1163.972,1165.100 1161.152,1161.973 1152.500 C 1160.184 1147.550,1158.158 1142.150,1157.471 1140.500 C 1156.784 1138.850,1155.919 1136.375,1155.548 1135.000 C 1155.178 1133.625,1154.516 1131.600,1154.079 1130.500 C 1152.567 1126.696,1147.102 1108.463,1144.637 1099.000 C 1142.157 1089.480,1140.891 1083.558,1138.542 1070.500 C 1137.849 1066.650,1136.796 1061.475,1136.202 1059.000 C 1135.608 1056.525,1134.158 1048.875,1132.981 1042.000 C 1130.344 1026.605,1129.487 1021.823,1127.421 1011.000 C 1126.528 1006.325,1125.437 1000.250,1124.996 997.500 C 1124.555 994.750,1123.437 988.450,1122.511 983.500 C 1121.586 978.550,1120.230 971.125,1119.499 967.000 C 1116.730 951.375,1114.980 942.734,1113.566 937.702 C 1112.761 934.841,1111.798 930.250,1111.426 927.500 C 1111.053 924.750,1110.405 922.050,1109.986 921.500 C 1109.567 920.950,1108.897 918.069,1108.497 915.097 C 1108.097 912.126,1107.188 908.301,1106.476 906.597 C 1105.764 904.894,1105.172 903.156,1105.159 902.736 C 1105.094 900.578,1102.778 890.182,1101.890 888.058 C 1101.328 886.715,1100.470 883.790,1099.984 881.558 C 1098.883 876.507,1092.661 858.327,1091.705 857.372 C 1091.317 856.984,1091.000 856.042,1091.000 855.278 C 1091.000 854.034,1090.010 851.547,1085.513 841.500 C 1084.774 839.850,1083.072 836.025,1081.729 833.000 C 1077.904 824.380,1074.979 817.846,1073.000 813.500 C 1071.998 811.300,1070.172 807.250,1068.942 804.500 C 1067.712 801.750,1064.747 795.315,1062.353 790.201 C 1059.959 785.086,1058.000 780.465,1058.000 779.931 C 1058.000 779.397,1056.875 777.178,1055.500 775.000 C 1054.125 772.822,1053.000 770.569,1053.000 769.993 C 1053.000 769.417,1051.474 765.920,1049.608 762.223 C 1047.742 758.525,1045.468 753.700,1044.553 751.500 C 1043.639 749.300,1042.161 746.150,1041.269 744.500 C 1039.356 740.962,1038.595 739.372,1037.197 736.000 C 1036.628 734.625,1035.051 731.025,1033.695 728.000 C 1032.338 724.975,1030.238 720.250,1029.028 717.500 C 1025.880 710.345,1023.222 704.503,1019.474 696.500 C 1017.671 692.650,1014.628 686.125,1012.713 682.000 C 1010.798 677.875,1008.054 671.982,1006.615 668.904 C 1005.177 665.825,1004.000 663.000,1004.000 662.626 C 1004.000 662.251,1001.750 657.244,999.000 651.500 C 996.250 645.756,993.990 640.481,993.978 639.778 C 993.966 639.075,993.076 637.375,992.000 636.000 C 990.924 634.625,990.034 632.980,990.022 632.345 C 990.010 631.709,989.135 629.459,988.078 627.345 C 984.824 620.836,978.021 606.029,972.527 593.500 C 969.307 586.156,966.601 580.098,964.264 575.000 C 962.878 571.975,960.198 566.125,958.309 562.000 C 956.419 557.875,953.954 552.554,952.829 550.175 C 948.311 540.616,946.245 528.538,946.215 511.500 C 946.186 495.132,947.468 491.384,955.969 483.000 C 965.401 473.696,972.577 471.444,983.500 474.357 C 992.638 476.795,1000.987 482.378,1008.000 490.741 C 1010.475 493.693,1012.961 496.646,1013.524 497.304 C 1018.643 503.282,1034.068 527.314,1038.041 535.500 C 1038.842 537.150,1039.748 538.725,1040.054 539.000 C 1040.361 539.275,1041.522 541.300,1042.636 543.500 C 1043.749 545.700,1046.371 550.650,1048.462 554.500 C 1050.553 558.350,1054.406 565.550,1057.023 570.500 C 1066.775 588.940,1068.151 591.478,1068.935 592.477 C 1069.376 593.040,1072.196 598.225,1075.202 604.000 C 1078.207 609.775,1081.707 616.300,1082.979 618.500 C 1084.251 620.700,1087.552 626.775,1090.316 632.000 C 1093.079 637.225,1096.599 643.750,1098.136 646.500 C 1099.674 649.250,1101.597 652.850,1102.409 654.500 C 1103.221 656.150,1104.773 659.075,1105.859 661.000 C 1106.944 662.925,1108.099 665.175,1108.425 666.000 C 1108.751 666.825,1109.850 668.850,1110.867 670.500 C 1114.671 676.670,1118.768 683.994,1126.898 699.161 C 1128.768 702.647,1131.276 707.075,1132.472 709.000 C 1133.668 710.925,1134.956 713.175,1135.335 714.000 C 1135.714 714.825,1137.501 718.200,1139.307 721.500 C 1141.112 724.800,1143.882 729.975,1145.462 733.000 C 1147.043 736.025,1148.885 739.175,1149.556 740.000 C 1150.227 740.825,1152.044 743.975,1153.593 747.000 C 1166.045 771.315,1182.177 782.166,1197.230 776.350 C 1202.550 774.295,1206.326 770.869,1209.095 765.585 C 1210.829 762.274,1211.330 759.167,1211.740 749.185 C 1212.230 737.250,1211.943 734.493,1208.497 718.000 C 1207.750 714.425,1205.726 704.300,1204.001 695.500 C 1202.275 686.700,1200.465 678.752,1199.978 677.837 C 1199.491 676.923,1198.813 673.773,1198.471 670.837 C 1198.130 667.902,1197.475 664.600,1197.016 663.500 C 1196.558 662.400,1195.186 657.000,1193.969 651.500 C 1192.751 646.000,1191.135 639.507,1190.377 637.072 C 1189.620 634.636,1189.000 631.571,1189.000 630.260 C 1189.000 628.949,1188.363 625.766,1187.584 623.188 C 1185.903 617.625,1181.983 600.640,1179.001 586.000 C 1177.825 580.225,1176.243 573.025,1175.485 570.000 C 1174.728 566.975,1172.487 556.625,1170.504 547.000 C 1166.717 528.612,1161.531 504.926,1159.995 499.000 C 1159.496 497.075,1157.969 489.875,1156.600 483.000 C 1155.232 476.125,1153.378 467.575,1152.479 464.000 C 1151.581 460.425,1150.414 455.250,1149.886 452.500 C 1148.487 445.208,1144.080 425.087,1142.962 420.885 C 1142.433 418.896,1140.889 411.471,1139.530 404.385 C 1136.538 388.782,1134.504 378.583,1131.874 366.000 C 1126.400 339.805,1125.793 334.324,1126.285 315.500 C 1126.904 291.792,1129.024 284.658,1138.719 273.654 C 1140.490 271.644,1142.248 270.000,1142.625 270.000 C 1143.002 270.000,1144.704 268.963,1146.406 267.695 C 1153.707 262.257,1166.674 261.368,1175.792 265.681 C 1183.080 269.129,1194.215 280.280,1199.451 289.375 C 1203.349 296.144,1207.676 305.600,1208.662 309.500 C 1208.940 310.600,1209.519 312.400,1209.950 313.500 C 1210.381 314.600,1211.265 317.525,1211.914 320.000 C 1216.377 337.022,1218.991 346.114,1219.922 347.855 C 1220.515 348.962,1221.000 351.227,1221.000 352.887 C 1221.000 354.547,1221.425 356.940,1221.944 358.203 C 1223.933 363.041,1237.011 408.943,1238.982 418.000 C 1239.400 419.925,1240.418 423.525,1241.243 426.000 C 1242.067 428.475,1243.744 434.550,1244.969 439.500 C 1246.194 444.450,1247.590 449.400,1248.071 450.500 C 1248.552 451.600,1249.837 455.875,1250.928 460.000 C 1252.018 464.125,1253.571 469.750,1254.379 472.500 C 1255.188 475.250,1256.804 480.875,1257.971 485.000 C 1259.138 489.125,1261.217 496.325,1262.593 501.000 C 1267.398 517.338,1271.121 530.943,1273.538 541.000 C 1275.516 549.227,1279.062 562.230,1279.947 564.500 C 1280.376 565.600,1281.498 569.425,1282.440 573.000 C 1285.099 583.086,1286.733 589.020,1288.500 595.000 C 1289.394 598.025,1290.735 602.750,1291.481 605.500 C 1293.672 613.583,1299.990 636.081,1301.590 641.500 C 1302.402 644.250,1303.670 648.975,1304.407 652.000 C 1306.956 662.464,1311.345 676.501,1312.171 676.833 C 1312.627 677.017,1313.000 677.635,1313.000 678.206 C 1313.000 678.778,1315.085 682.167,1317.632 685.738 C 1323.064 693.350,1328.347 696.291,1336.438 696.208 C 1348.841 696.080,1355.625 688.808,1358.087 673.000 C 1359.132 666.296,1358.704 622.994,1357.575 621.099 C 1357.378 620.770,1356.938 609.700,1356.597 596.500 C 1355.818 566.345,1355.222 551.601,1353.991 532.000 C 1352.932 515.135,1352.373 498.758,1351.467 458.000 C 1351.143 443.425,1350.433 424.075,1349.890 415.000 C 1349.346 405.925,1348.506 386.910,1348.022 372.745 C 1347.539 358.580,1346.677 342.830,1346.108 337.745 C 1344.897 326.929,1343.501 273.492,1343.567 240.500 C 1343.618 215.321,1344.618 207.902,1349.840 193.958 C 1355.899 177.778,1365.180 167.836,1379.033 162.686 C 1384.597 160.617,1394.348 160.506,1399.853 162.448 C 1410.407 166.172,1424.034 179.315,1429.097 190.655 C 1430.287 193.320,1431.628 196.243,1432.077 197.152 C 1433.850 200.736,1435.996 211.110,1437.513 223.430 C 1438.388 230.542,1439.265 236.619,1439.460 236.936 C 1439.656 237.253,1440.137 243.584,1440.528 251.006 C 1440.920 258.428,1441.401 265.368,1441.597 266.428 C 1441.793 267.489,1442.252 275.364,1442.617 283.928 C 1443.379 301.840,1442.848 305.300,1436.855 321.500 L 1432.786 332.500 1433.408 350.500 C 1434.453 380.751,1435.890 404.295,1436.947 408.500 C 1437.500 410.700,1437.974 417.450,1438.000 423.500 C 1438.026 429.550,1438.495 436.300,1439.041 438.500 C 1439.588 440.700,1440.471 450.375,1441.004 460.000 C 1442.470 486.496,1443.821 505.517,1444.944 515.500 C 1445.500 520.450,1446.236 530.125,1446.578 537.000 C 1446.920 543.875,1447.516 551.300,1447.902 553.500 C 1448.288 555.700,1448.727 563.350,1448.876 570.500 C 1449.026 577.650,1449.529 585.300,1449.995 587.500 C 1450.461 589.700,1451.131 596.900,1451.484 603.500 C 1451.836 610.100,1452.526 617.975,1453.017 621.000 C 1453.507 624.025,1454.217 633.825,1454.595 642.778 C 1454.972 651.731,1455.668 659.295,1456.140 659.587 C 1456.613 659.879,1457.000 660.811,1457.000 661.658 C 1457.000 666.886,1465.725 677.943,1472.000 680.665 C 1479.423 683.887,1489.595 681.543,1495.499 675.251 C 1496.919 673.738,1499.456 669.575,1501.138 666.000 C 1502.819 662.425,1504.571 658.768,1505.029 657.873 C 1505.488 656.978,1506.157 654.503,1506.516 652.373 C 1507.220 648.196,1510.300 631.814,1512.509 620.500 C 1513.260 616.650,1515.032 606.525,1516.445 598.000 C 1517.859 589.475,1519.467 580.475,1520.019 578.000 C 1520.570 575.525,1521.269 571.475,1521.571 569.000 C 1521.874 566.525,1522.344 563.835,1522.616 563.022 C 1522.889 562.209,1523.533 558.609,1524.047 555.022 C 1524.561 551.435,1525.681 544.900,1526.535 540.500 C 1527.390 536.100,1528.461 530.250,1528.916 527.500 C 1530.117 520.234,1533.666 500.763,1535.477 491.500 C 1536.338 487.100,1537.695 479.450,1538.494 474.500 C 1539.293 469.550,1540.385 463.475,1540.922 461.000 C 1541.458 458.525,1542.592 452.450,1543.442 447.500 C 1544.292 442.550,1545.711 434.675,1546.596 430.000 C 1547.481 425.325,1548.634 418.800,1549.159 415.500 C 1549.684 412.200,1551.184 403.875,1552.492 397.000 C 1557.043 373.097,1558.240 366.582,1558.640 363.550 C 1560.505 349.418,1572.725 286.428,1574.108 283.816 C 1574.599 282.889,1575.000 281.264,1575.000 280.204 C 1575.000 277.444,1582.367 263.503,1586.969 257.553 C 1591.490 251.708,1597.466 246.538,1604.325 242.537 C 1607.918 240.440,1610.909 239.596,1616.043 239.229 C 1622.331 238.779,1623.509 239.021,1629.470 241.985 C 1636.392 245.427,1641.200 249.409,1644.901 254.764 C 1648.198 259.536,1652.973 269.235,1652.987 271.191 C 1652.994 272.121,1653.450 273.160,1654.000 273.500 C 1654.550 273.840,1655.000 275.412,1655.000 276.994 C 1655.000 278.576,1655.502 281.137,1656.115 282.685 C 1657.330 285.752,1657.602 325.217,1656.421 327.127 C 1656.047 327.733,1655.137 335.939,1654.399 345.364 C 1653.661 354.789,1652.352 369.925,1651.490 379.000 C 1650.628 388.075,1649.694 397.975,1649.415 401.000 C 1649.136 404.025,1648.460 411.225,1647.913 417.000 C 1647.366 422.775,1646.491 433.003,1645.968 439.729 C 1645.446 446.454,1644.577 453.925,1644.038 456.329 C 1643.499 458.734,1642.781 465.606,1642.441 471.601 C 1642.102 477.595,1641.416 484.075,1640.918 486.000 C 1640.419 487.925,1639.976 493.100,1639.933 497.500 C 1639.889 501.900,1639.444 507.975,1638.944 511.000 C 1638.443 514.025,1637.587 522.713,1637.041 530.307 C 1636.495 537.900,1635.818 544.485,1635.538 544.939 C 1635.257 545.393,1634.746 550.880,1634.403 557.132 C 1634.059 563.384,1633.366 571.425,1632.863 575.000 C 1632.359 578.575,1631.536 586.826,1631.034 593.335 C 1630.532 599.845,1629.842 606.444,1629.500 608.000 C 1628.908 610.697,1627.876 622.330,1626.085 646.500 C 1625.637 652.550,1624.789 659.975,1624.201 663.000 C 1623.612 666.025,1622.856 673.450,1622.519 679.500 C 1622.183 685.550,1621.482 695.450,1620.962 701.500 C 1618.592 729.089,1620.585 807.592,1623.932 818.500 C 1624.439 820.150,1625.125 824.875,1625.458 829.000 C 1625.986 835.536,1628.128 848.293,1630.915 861.500 C 1634.327 877.669,1641.952 895.122,1648.883 902.628 C 1653.646 907.787,1659.846 912.000,1662.673 912.000 C 1663.888 912.000,1665.196 912.509,1665.581 913.131 C 1666.656 914.871,1682.731 913.588,1687.000 911.421 C 1697.014 906.337,1706.238 897.299,1721.696 877.424 C 1730.167 866.531,1739.632 853.009,1749.458 837.761 C 1757.008 826.043,1757.828 824.686,1765.309 811.500 C 1767.494 807.650,1770.974 801.575,1773.043 798.000 C 1775.111 794.425,1778.253 788.825,1780.024 785.557 C 1781.795 782.288,1783.880 778.977,1784.657 778.200 C 1785.434 777.423,1787.918 774.066,1790.176 770.741 C 1806.679 746.439,1835.389 721.137,1860.714 708.574 C 1874.288 701.841,1883.871 698.962,1895.500 698.127 C 1911.835 696.952,1923.742 699.956,1931.651 707.246 C 1937.432 712.574,1939.215 716.295,1939.568 723.770 C 1940.022 733.352,1936.350 741.999,1925.244 757.500 C 1918.742 766.576,1918.604 766.777,1911.561 777.500 C 1907.948 783.000,1904.544 788.044,1903.996 788.708 C 1903.448 789.372,1903.000 790.105,1903.000 790.337 C 1903.000 790.861,1896.540 801.623,1895.230 803.282 C 1893.816 805.072,1889.413 813.046,1882.963 825.500 C 1869.841 850.834,1857.979 872.152,1855.976 874.000 C 1855.678 874.275,1853.460 877.875,1851.047 882.000 C 1848.634 886.125,1846.286 889.650,1845.830 889.833 C 1845.373 890.017,1845.000 890.622,1845.000 891.179 C 1845.000 891.736,1844.097 893.459,1842.994 895.008 C 1841.263 897.440,1828.271 918.574,1823.021 927.500 C 1811.177 947.637,1809.074 951.643,1802.029 967.500 C 1801.540 968.600,1799.808 972.425,1798.180 976.000 C 1796.551 979.575,1794.892 983.625,1794.492 985.000 C 1794.092 986.375,1792.693 989.876,1791.383 992.780 C 1790.072 995.683,1789.000 998.353,1789.000 998.711 C 1789.000 999.070,1787.587 1002.994,1785.860 1007.431 C 1781.889 1017.635,1781.585 1018.444,1779.443 1024.500 C 1778.471 1027.250,1775.723 1033.665,1773.337 1038.756 C 1770.952 1043.847,1769.000 1048.408,1769.000 1048.893 C 1769.000 1050.226,1756.964 1073.449,1751.669 1082.333 C 1749.101 1086.641,1747.000 1090.366,1747.000 1090.612 C 1747.000 1092.109,1715.501 1136.902,1711.215 1141.500 C 1710.190 1142.600,1706.854 1146.875,1703.803 1151.000 C 1685.435 1175.830,1656.662 1208.131,1638.500 1224.309 C 1607.647 1251.793,1596.610 1264.540,1587.179 1283.579 C 1577.806 1302.502,1573.919 1319.199,1572.404 1347.055 C 1571.628 1361.323,1572.193 1363.347,1577.580 1365.598 C 1580.530 1366.831,1581.464 1366.833,1584.378 1365.615 C 1586.236 1364.839,1588.067 1363.701,1588.447 1363.086 C 1589.204 1361.861,1589.626 1356.733,1590.480 1338.353 C 1591.281 1321.119,1595.749 1304.976,1604.229 1288.676 C 1611.377 1274.937,1620.466 1263.946,1636.493 1249.659 C 1664.647 1224.562,1684.093 1204.189,1702.986 1180.000 C 1705.778 1176.425,1708.611 1172.825,1709.281 1172.000 C 1733.552 1142.123,1746.808 1123.804,1763.193 1097.500 C 1764.564 1095.300,1767.179 1090.800,1769.006 1087.500 C 1770.832 1084.200,1773.227 1079.925,1774.328 1078.000 C 1776.834 1073.620,1781.240 1064.756,1783.526 1059.500 C 1784.482 1057.300,1786.047 1053.700,1787.002 1051.500 C 1787.957 1049.300,1789.318 1045.925,1790.028 1044.000 C 1790.737 1042.075,1792.306 1038.250,1793.514 1035.500 C 1794.723 1032.750,1797.601 1025.550,1799.910 1019.500 C 1802.219 1013.450,1804.723 1006.925,1805.474 1005.000 C 1806.225 1003.075,1808.044 998.350,1809.517 994.500 C 1810.989 990.650,1812.710 986.150,1813.342 984.500 C 1816.131 977.221,1833.359 943.787,1837.947 936.751 C 1840.726 932.489,1843.000 928.774,1843.000 928.496 C 1843.000 928.217,1845.700 923.980,1849.000 919.080 C 1852.300 914.180,1855.000 909.916,1855.000 909.605 C 1855.000 909.293,1857.250 905.689,1860.000 901.596 C 1862.750 897.502,1865.000 893.926,1865.000 893.650 C 1865.000 893.373,1867.310 889.401,1870.133 884.823 C 1872.957 880.246,1876.027 875.150,1876.956 873.500 C 1885.564 858.215,1890.962 848.204,1897.717 835.000 C 1902.078 826.475,1906.513 817.985,1907.573 816.133 C 1910.975 810.188,1930.602 780.566,1934.867 774.941 C 1937.135 771.948,1938.993 769.166,1938.996 768.759 C 1938.998 768.351,1940.555 765.980,1942.456 763.489 C 1947.319 757.119,1954.664 741.269,1955.932 734.410 C 1956.519 731.232,1956.984 726.578,1956.964 724.066 C 1956.925 718.995,1954.556 708.014,1953.302 707.092 C 1952.859 706.766,1951.909 705.375,1951.191 704.000 C 1946.830 695.648,1935.556 687.958,1921.000 683.408 C 1912.792 680.842,1894.130 680.344,1884.339 682.430 C 1869.443 685.602,1848.353 693.843,1842.921 698.614 C 1842.053 699.376,1840.928 700.010,1840.421 700.022 C 1839.915 700.034,1838.375 700.957,1837.000 702.072 C 1835.625 703.187,1832.700 705.273,1830.500 706.706 C 1817.262 715.333,1793.023 738.266,1781.733 752.845 C 1772.101 765.283,1761.000 781.784,1761.000 783.664 C 1761.000 784.399,1760.550 785.000,1760.000 785.000 C 1759.450 785.000,1759.000 785.454,1759.000 786.008 C 1759.000 786.562,1756.638 791.095,1753.750 796.081 C 1748.842 804.556,1745.673 810.167,1740.282 819.925 C 1736.507 826.758,1724.939 844.043,1717.548 853.896 C 1713.672 859.064,1709.537 864.689,1708.360 866.396 C 1705.287 870.854,1690.384 887.809,1687.198 890.472 C 1683.261 893.763,1676.468 897.000,1673.500 897.000 C 1669.467 897.000,1663.505 893.453,1659.674 888.774 C 1655.825 884.073,1650.505 871.654,1648.905 863.636 C 1648.342 860.811,1647.490 857.600,1647.013 856.500 C 1646.535 855.400,1645.669 851.350,1645.087 847.500 C 1644.505 843.650,1643.603 838.250,1643.083 835.500 C 1642.562 832.750,1641.916 827.125,1641.648 823.000 C 1641.379 818.875,1640.482 810.550,1639.654 804.500 C 1636.760 783.345,1635.704 722.885,1638.048 712.500 C 1638.545 710.300,1638.966 704.675,1638.985 700.000 C 1639.003 695.325,1639.684 685.841,1640.499 678.925 C 1641.851 667.445,1642.421 661.114,1644.995 629.000 C 1645.458 623.225,1646.106 617.375,1646.435 616.000 C 1646.764 614.625,1647.472 608.100,1648.009 601.500 C 1648.545 594.900,1649.218 588.600,1649.503 587.500 C 1649.975 585.683,1650.577 577.819,1652.918 542.901 C 1653.346 536.521,1654.074 530.690,1654.536 529.942 C 1654.998 529.195,1655.717 521.590,1656.135 513.042 C 1656.553 504.494,1657.368 495.928,1657.947 494.007 C 1658.526 492.085,1659.000 485.927,1659.000 480.322 C 1659.000 474.716,1659.493 468.863,1660.096 467.315 C 1660.699 465.767,1661.387 460.450,1661.624 455.500 C 1661.861 450.550,1662.698 442.000,1663.484 436.500 C 1664.269 431.000,1665.159 422.000,1665.461 416.500 C 1665.762 411.000,1666.206 405.375,1666.447 404.000 C 1666.688 402.625,1667.385 394.750,1667.996 386.500 C 1668.606 378.250,1669.513 369.475,1670.009 367.000 C 1670.506 364.525,1670.932 359.562,1670.956 355.970 C 1670.980 352.379,1671.729 343.829,1672.621 336.970 C 1673.581 329.580,1674.294 316.353,1674.371 304.500 C 1674.487 286.468,1674.265 283.565,1672.109 275.000 C 1668.210 259.506,1661.910 247.351,1652.886 237.913 C 1645.098 229.768,1639.081 226.140,1629.169 223.614 C 1608.980 218.468,1589.233 226.497,1574.026 246.036 C 1572.115 248.491,1570.315 250.725,1570.026 251.000 C 1569.324 251.668,1567.759 254.527,1564.515 261.072 C 1563.035 264.057,1561.188 267.694,1560.412 269.154 C 1559.635 270.614,1559.000 272.662,1559.000 273.704 C 1559.000 274.747,1558.628 276.027,1558.174 276.550 C 1556.710 278.233,1555.030 285.168,1552.491 300.000 C 1551.126 307.975,1549.401 317.650,1548.659 321.500 C 1547.917 325.350,1546.542 333.000,1545.603 338.500 C 1544.664 344.000,1543.217 352.100,1542.387 356.500 C 1541.557 360.900,1540.465 366.750,1539.960 369.500 C 1536.968 385.795,1532.595 409.243,1530.449 420.500 C 1526.517 441.121,1525.238 448.414,1522.468 466.000 C 1521.038 475.075,1519.250 485.200,1518.493 488.500 C 1517.736 491.800,1516.388 498.775,1515.498 504.000 C 1514.609 509.225,1513.468 515.344,1512.964 517.598 C 1512.106 521.438,1510.200 532.995,1507.951 548.000 C 1507.416 551.575,1506.732 555.165,1506.433 555.978 C 1506.133 556.791,1505.468 560.391,1504.954 563.978 C 1504.440 567.565,1503.336 573.875,1502.500 578.000 C 1501.664 582.125,1500.543 588.566,1500.009 592.314 C 1499.476 596.062,1498.826 599.473,1498.566 599.894 C 1498.306 600.314,1497.612 603.773,1497.023 607.579 C 1496.435 611.386,1495.566 615.625,1495.092 617.000 C 1494.618 618.375,1493.729 622.538,1493.115 626.250 C 1492.502 629.962,1491.496 636.038,1490.879 639.750 C 1488.221 655.754,1482.789 667.007,1478.513 665.367 C 1476.808 664.712,1473.931 658.748,1473.331 654.623 C 1473.081 652.905,1472.457 649.925,1471.944 648.000 C 1471.431 646.075,1470.994 638.875,1470.974 632.000 C 1470.953 625.125,1470.290 614.775,1469.500 609.000 C 1468.710 603.225,1468.030 595.125,1467.988 591.000 C 1467.947 586.875,1467.468 581.475,1466.923 579.000 C 1466.379 576.525,1465.544 567.750,1465.069 559.500 C 1464.205 544.525,1462.934 528.722,1460.846 507.000 C 1460.237 500.675,1459.390 488.525,1458.962 480.000 C 1457.649 453.815,1456.122 433.006,1455.432 431.890 C 1455.071 431.305,1454.351 422.203,1453.832 411.663 C 1453.314 401.124,1452.460 385.750,1451.936 377.500 C 1451.411 369.250,1450.714 355.181,1450.388 346.235 C 1449.845 331.368,1449.964 329.606,1451.779 325.735 C 1452.871 323.406,1455.213 316.100,1456.984 309.500 C 1460.158 297.666,1460.195 297.271,1459.643 281.000 C 1459.336 271.925,1458.847 263.150,1458.557 261.500 C 1458.267 259.850,1457.609 251.426,1457.093 242.780 C 1456.577 234.134,1455.942 226.709,1455.682 226.280 C 1455.422 225.851,1454.918 222.580,1454.563 219.011 C 1453.192 205.216,1447.386 186.589,1441.842 178.200 C 1440.279 175.835,1439.000 173.504,1439.000 173.021 C 1439.000 172.538,1438.438 171.543,1437.750 170.811 C 1437.063 170.078,1434.721 167.458,1432.546 164.989 C 1430.371 162.520,1426.996 159.244,1425.046 157.708 C 1423.096 156.172,1420.724 154.274,1419.775 153.489 C 1416.669 150.920,1405.063 145.960,1399.841 144.970 C 1393.524 143.772,1382.675 143.858,1378.000 145.142 "/>

  <g id="finger-index" fill="none" stroke="none" pointer-events="none">
    <g id="pinky" data-tip-x="1162" data-tip-y="247" data-cmd-start="0" data-cmd-end="78">
      <circle class="tip" cx="1162" cy="247" r="8"/>
      <rect class="bbox" x="1109" y="145" width="269" height="612"/>
    </g>
    <g id="ring" data-tip-x="1176" data-tip-y="266" data-cmd-start="78" data-cmd-end="300">
      <circle class="tip" cx="1176" cy="266" r="8"/>
      <rect class="bbox" x="930" y="266" width="388" height="1098"/>
    </g>
    <g id="middle" data-tip-x="1400" data-tip-y="162" data-cmd-start="300" data-cmd-end="336">
      <circle class="tip" cx="1400" cy="162" r="8"/>
      <rect class="bbox" x="1336" y="162" width="121" height="534"/>
    </g>
    <g id="index" data-tip-x="1616" data-tip-y="239" data-cmd-start="336" data-cmd-end="486">
      <circle class="tip" cx="1616" cy="239" r="8"/>
      <rect class="bbox" x="1472" y="239" width="485" height="1126"/>
    </g>
    <g id="thumb" data-tip-x="1629" data-tip-y="224" data-cmd-start="486" data-cmd-end="574">
      <circle class="tip" cx="1629" cy="224" r="8"/>
      <rect class="bbox" x="1378" y="145" width="296" height="752"/>
    </g>
  </g>
  </g>
</svg>